<svg width="133" height="66" viewBox="0 0 133 66" fill="none" xmlns="http://www.w3.org/2000/svg">
<path d="M39.7297 8.37315C39.3695 8.0756 38.9588 7.84273 38.5165 7.68518C38.1889 7.54722 37.8235 7.52208 37.4796 7.61383C37.3909 7.64635 37.3116 7.69949 37.2484 7.76871C37.1852 7.83794 37.14 7.92119 37.1167 8.01133L37.0856 8.0419C36.9601 7.94414 36.8138 7.87548 36.6576 7.84106C36.5014 7.80665 36.3393 7.80736 36.1834 7.84315C36.1239 7.86704 36.0694 7.9016 36.0227 7.94508C34.151 9.64904 32.508 11.5808 31.1337 13.6935C29.4732 16.195 28.1192 18.8806 27.1001 21.6945C26.7047 22.7669 26.4435 23.8827 26.3224 25.0172C26.1756 26.0444 26.2733 27.091 26.6076 28.0749C26.8041 28.6316 27.1563 29.1226 27.6238 29.4916C28.614 30.2764 29.3347 30.5872 29.7753 30.4242C29.8879 30.3812 29.9836 30.3043 30.0488 30.2045C30.114 30.1047 30.1453 29.9871 30.1383 29.8687C30.1394 29.5177 30.0652 29.1704 29.9205 28.8495C29.912 28.8091 29.912 28.7675 29.9205 28.7272C30.5722 27.4166 31.3371 26.1634 32.2069 24.9815C32.9868 23.903 33.911 22.9328 34.9547 22.0971C35.0186 23.1961 35.2349 24.2814 35.5976 25.3229C36.1437 26.777 36.9283 27.6841 37.9514 28.0443C38.9572 28.3959 39.6726 28.4978 40.0926 28.3449C40.1747 28.3207 40.2494 28.2768 40.31 28.2172C40.3707 28.1576 40.4153 28.0842 40.44 28.0035C40.4899 27.819 40.4753 27.6234 40.3985 27.448C40.2891 27.1709 40.1273 26.9167 39.9215 26.6989C39.7622 26.5032 39.6409 26.2804 39.5638 26.0415C39.2259 25.0137 39.0305 23.9457 38.9831 22.8666C38.8863 21.2634 38.9383 19.6549 39.1386 18.0609C39.4365 15.3758 39.9075 12.7119 40.5488 10.0855C40.6157 9.84415 40.5992 9.58788 40.5022 9.35671C40.3376 8.96752 40.0711 8.62815 39.7297 8.37315ZM34.9288 19.8701C33.9475 20.6604 33.0573 21.5542 32.2743 22.5354C31.4289 23.5806 30.6908 24.7055 30.0709 25.8937C30.4809 23.9601 31.0728 22.0681 31.8388 20.2421C32.3572 18.9884 32.969 17.694 33.6949 16.3181C34.4207 14.9421 35.1362 13.6935 35.8931 12.5367C35.3746 14.9522 35.0521 17.4044 34.9288 19.8701Z" fill="#DA1212"/>
<path d="M54.5421 30.8887C54.3769 30.7159 54.1864 30.5682 53.977 30.4505C53.6711 30.2721 53.3963 29.737 53.1578 28.835C52.9241 27.901 52.7835 26.947 52.7379 25.9862C52.6476 24.0065 52.7395 22.0228 53.0127 20.0594C53.2754 18.1535 53.5985 16.3222 53.9822 14.5658L54.1325 13.9135C54.1418 13.8509 54.1418 13.7874 54.1325 13.7249C53.9969 13.3869 53.7457 13.1058 53.4222 12.9299C53.0106 12.6473 52.5579 12.4274 52.0794 12.2776C51.7201 12.1336 51.3277 12.0878 50.944 12.1451C50.8737 12.1594 50.8078 12.1899 50.7519 12.2342C50.696 12.2786 50.6517 12.3354 50.6226 12.3999C50.2166 13.364 49.8923 14.3595 49.6531 15.3761C49.5626 15.0642 49.4102 14.7731 49.2046 14.5194C48.9991 14.2657 48.7444 14.0546 48.4555 13.8982C47.9293 13.6441 47.366 13.4722 46.786 13.3886C46.1594 13.289 45.5185 13.3185 44.904 13.4752C44.3569 13.6047 43.851 13.8656 43.4316 14.2345C42.9277 14.7011 42.5302 15.2673 42.2651 15.8959C41.9152 16.681 41.6745 17.509 41.5496 18.3573C41.3874 19.2667 41.4245 20.1997 41.6585 21.0939C41.8756 22.0164 42.3911 22.8448 43.1277 23.4549C43.8643 24.065 44.7823 24.4239 45.7439 24.4778C46.0423 24.5176 46.3458 24.4968 46.6357 24.4166C47.0928 24.2948 47.5106 24.0596 47.8489 23.7337C48.23 23.3542 48.4957 22.8777 48.6162 22.3578C48.5416 23.8054 48.5971 25.2566 48.7821 26.6946C48.8396 27.1581 48.9262 27.6176 49.0413 28.0706C49.3071 29.2039 49.9035 30.2365 50.7574 31.0416C51.2051 31.4129 51.7273 31.6873 52.2901 31.8471C52.8528 32.0069 53.4435 32.0485 54.0237 31.9691C54.1421 31.9593 54.2599 31.9423 54.3762 31.9182C54.7547 31.8213 54.8947 31.6328 54.8324 31.3576C54.7721 31.1821 54.6729 31.022 54.5421 30.8887ZM48.7354 20.7321C48.6906 20.3006 48.6126 19.873 48.5021 19.453C48.4226 19.1608 48.3552 18.9366 48.2999 18.7803C48.2448 18.6015 48.1408 18.4411 47.9992 18.3165C47.947 18.2694 47.8835 18.2358 47.8147 18.2189C47.7459 18.202 47.6739 18.2023 47.6052 18.2197C47.5349 18.2391 47.4707 18.2753 47.4182 18.3251C47.3657 18.3749 47.3267 18.4368 47.3045 18.5051C47.2353 18.6963 47.2353 18.9051 47.3045 19.0963C47.5221 19.7821 47.6254 20.498 47.6104 21.2162C47.6144 21.6643 47.4982 22.1055 47.2734 22.4954C47.1286 22.7379 46.8978 22.9194 46.6253 23.005C46.504 23.0436 46.3734 23.0436 46.252 23.005C45.9721 22.9235 45.7699 22.6585 45.6506 22.2049C45.4594 21.2629 45.4594 20.2931 45.6506 19.3511C45.8027 18.3073 46.0669 17.2824 46.4387 16.2934C46.5714 16.0205 46.7463 15.7696 46.9571 15.5493C47.1123 15.3672 47.3174 15.2327 47.5482 15.162C48.0303 15.0346 48.3829 15.3863 48.5851 16.2067C48.6506 16.4667 48.6991 16.7305 48.7302 16.9966C48.8598 18.2385 48.8615 19.4899 48.7354 20.7321Z" fill="#DA1212"/>
<path d="M97.8697 15.0999C97.6053 15.0999 97.3098 15.3037 96.9831 15.7624C96.4623 16.5525 95.8344 17.2691 95.1167 17.8925C94.727 18.2967 94.2027 18.5499 93.6391 18.606C93.2658 18.5822 93.093 18.2815 93.1206 17.704C93.1725 16.8988 93.6028 15.7878 94.4012 14.3711C94.5916 14.0713 94.8012 13.7836 95.0286 13.5099C95.3344 13.1175 95.6455 12.7251 95.967 12.3378C96.0376 12.2513 96.0744 12.1428 96.0707 12.032C96.0622 11.6458 95.9436 11.2697 95.7285 10.9465C95.4876 10.5234 95.1874 10.1357 94.8367 9.79478C94.597 9.52928 94.2741 9.34994 93.9191 9.28517C93.8316 9.27485 93.743 9.29084 93.665 9.33103C93.1243 9.64736 92.6262 10.0292 92.1822 10.4675C92.1406 10.1309 92.0061 9.81196 91.7934 9.54507C91.5373 9.23673 91.2349 8.96864 90.8965 8.75007C90.424 8.4714 89.8909 8.3072 89.3411 8.27103C88.2547 8.22735 87.1838 8.53528 86.2926 9.14757C85.1571 9.91489 84.2427 10.9576 83.6381 12.1747C83.2167 12.9307 82.9557 13.7628 82.8708 14.6208C82.7672 14.7479 82.6736 14.8824 82.5908 15.0234C82.1544 15.8345 81.62 16.5908 80.9992 17.2759C80.6961 17.674 80.2554 17.9495 79.76 18.0505C79.6543 18.0563 79.5492 18.032 79.4572 17.9805C79.3652 17.9289 79.2904 17.8524 79.2416 17.76C79.1007 17.4889 79.0295 17.1879 79.0342 16.8835C79.0487 16.0433 79.192 15.2101 79.4593 14.4119C79.8271 13.2271 80.2953 12.0747 80.8592 10.9669C82.2023 8.33658 83.7629 5.81913 85.5253 3.43989L85.9297 2.86912C85.9878 2.78366 86.0135 2.68084 86.0022 2.57865C85.9516 2.19342 85.7957 1.82888 85.5512 1.52374C85.2672 1.12056 84.9288 0.757124 84.5454 0.443362C84.2815 0.193478 83.9403 0.0374291 83.5759 0C83.4769 0.0111406 83.3833 0.0500647 83.3063 0.112116C82.3218 1.07821 81.4249 2.12689 80.6259 3.24624C79.5923 4.65981 78.6669 6.14687 77.8573 7.69517C77.0242 9.23773 76.3537 10.8599 75.8561 12.5365C75.6424 13.256 75.5069 13.9956 75.4517 14.7431C75.3723 14.8631 75.303 14.9892 75.2443 15.1202C74.8178 16.147 74.2164 17.0949 73.466 17.9231C73.0061 18.4754 72.3642 18.8522 71.6514 18.9882C71.4336 19.0145 71.2126 18.9873 71.0081 18.909C70.8036 18.8308 70.6221 18.7039 70.4797 18.5398C70.1243 18.114 69.9187 17.5866 69.8938 17.0364C69.8938 16.8173 69.8627 16.6542 69.8627 16.5268C70.6492 16.1186 71.3649 15.5906 71.9832 14.9623C72.6719 14.3041 73.2682 13.5586 73.7563 12.7454C74.1712 12.1176 74.3777 11.3786 74.3474 10.6305C74.3278 10.3897 74.2534 10.1564 74.1296 9.94766C73.8345 9.41353 73.378 8.98261 72.8231 8.71439C72.2666 8.44816 71.6437 8.34553 71.0293 8.41882C69.9603 8.5552 68.968 9.03751 68.2089 9.78968C67.9033 10.0711 67.6272 10.3818 67.3845 10.7172C67.323 10.7044 67.2594 10.7044 67.1979 10.7172C67.1124 10.734 67.0312 10.7675 66.9591 10.8156C66.8869 10.8637 66.8254 10.9256 66.7779 10.9975C66.0577 12.0562 65.1307 12.9639 64.0508 13.6678C63.9898 13.3737 63.8658 13.0957 63.687 12.8523C63.5083 12.6089 63.2788 12.4057 63.0139 12.2562C62.6227 12.0424 62.1633 11.9829 61.729 12.0899C61.2948 12.1968 60.9182 12.4622 60.6757 12.8321C60.467 13.1542 60.3858 13.5405 60.4476 13.9176C60.4942 14.1656 60.6078 14.3968 60.7766 14.5869C60.9453 14.777 61.163 14.919 61.4067 14.9979C61.8268 15.1737 62.2843 15.2455 62.7392 15.2069C62.6471 16.1035 62.4182 16.9814 62.06 17.811C61.7984 18.4414 61.4303 19.0238 60.9712 19.5335C60.7258 19.8435 60.3972 20.08 60.0224 20.2164C59.8945 20.2419 59.7616 20.2287 59.6414 20.1787C59.5211 20.1287 59.419 20.0441 59.3485 19.9361C59.1442 19.6286 59.0114 19.2806 58.9596 18.9169C58.7944 17.8607 58.8032 16.7852 58.9855 15.7318C59.1644 14.5018 59.5132 13.3016 60.0224 12.1645C60.0431 12.0877 60.0431 12.0069 60.0224 11.9301C59.9266 11.6315 59.7166 11.3812 59.4366 11.2319C59.0764 10.9865 58.6817 10.7942 58.2649 10.6611C57.9178 10.5325 57.5446 10.4871 57.1761 10.5286C57.0991 10.5394 57.0252 10.5658 56.9592 10.6061C56.8931 10.6465 56.8363 10.6999 56.7925 10.763C56.0897 11.9599 55.6137 13.2722 55.3875 14.6361C55.1669 15.9163 55.1669 17.2239 55.3875 18.5041C55.4533 18.9339 55.5753 19.3535 55.7504 19.7526C55.9124 20.0895 56.1585 20.3805 56.4658 20.5986C56.8875 20.8922 57.3503 21.1239 57.8398 21.2866C58.4312 21.5212 59.0773 21.59 59.7062 21.4853C60.8157 21.2917 61.8007 20.5561 62.6614 19.2787C63.5092 17.9533 63.9834 16.4302 64.0353 14.8654C64.7146 14.5794 65.3348 14.1735 65.8654 13.6678L66.0002 13.5353C65.7779 14.2648 65.7005 15.0296 65.7721 15.7878C65.8534 16.6963 66.2152 17.5587 66.809 18.2595C67.4769 19.0163 68.3598 19.5594 69.3443 19.8189C69.9911 20.0164 70.6706 20.0891 71.3455 20.0329C72.4099 19.9188 73.4029 19.4514 74.1607 18.7079C74.7729 18.1266 75.278 17.4456 75.6539 16.695C75.9252 17.5796 76.5149 18.3368 77.3129 18.8251C77.8999 19.2575 78.6118 19.4949 79.3453 19.5029C79.7519 19.4826 80.1502 19.3819 80.5164 19.2067C80.8825 19.0316 81.2089 18.7857 81.4761 18.4837C82.065 17.8544 82.575 17.1581 82.9952 16.4096C83.0875 16.7553 83.2215 17.0889 83.3944 17.4033C83.9047 18.2467 84.6745 18.9088 85.5927 19.294C85.8454 19.4095 86.118 19.4769 86.3963 19.4927C87.5369 19.5692 88.7397 18.8048 90.0255 17.1995C90.2431 17.7701 90.5776 18.2908 91.0084 18.7291C91.4391 19.1674 91.9569 19.5141 92.5296 19.7475C92.7814 19.8655 93.0546 19.933 93.3332 19.9463C94.7158 20.038 96.1778 18.9135 97.7193 16.5726C97.9419 16.2732 98.0813 15.9219 98.1237 15.5534C98.1704 15.2731 98.0874 15.1151 97.8697 15.0999ZM70.2049 14.3049C70.4283 13.5193 70.7653 12.7693 71.2055 12.0779C71.6566 11.3593 72.0402 10.9822 72.3617 10.9516C72.4034 10.9412 72.447 10.9405 72.4889 10.9497C72.5309 10.9588 72.5701 10.9776 72.6034 11.0043C72.6367 11.0311 72.6631 11.0652 72.6806 11.1038C72.698 11.1424 72.706 11.1846 72.7039 11.2268C72.6958 11.5991 72.5885 11.9628 72.3928 12.2817C72.1258 12.786 71.8023 13.2595 71.4285 13.6933C71.0301 14.1743 70.57 14.6025 70.0597 14.9674L70.2049 14.3049ZM62.0963 14.0246C62.0264 13.9971 61.9647 13.9528 61.9167 13.8958C61.8687 13.8389 61.836 13.771 61.8215 13.6984C61.8133 13.6516 61.8146 13.6036 61.8253 13.5573C61.8359 13.5109 61.8558 13.4671 61.8837 13.4283C61.9072 13.3879 61.9393 13.3528 61.9777 13.3256C62.0162 13.2983 62.0602 13.2795 62.1066 13.2703C62.1878 13.2602 62.2702 13.2703 62.3463 13.2997C62.4224 13.3291 62.4897 13.3768 62.5421 13.4385C62.7047 13.6359 62.8008 13.8781 62.8169 14.1316C62.5712 14.165 62.321 14.1278 62.0963 14.0246ZM90.378 13.0053C90.0557 13.7174 89.8543 14.4766 89.7818 15.2527C89.7721 15.4038 89.7721 15.5553 89.7818 15.7063C89.2996 16.3903 88.7278 17.0088 88.0813 17.546C87.7335 17.8931 87.2731 18.1094 86.7799 18.1575C86.4015 18.1321 86.2615 17.8263 86.2615 17.2402C86.4606 16.0546 86.8826 14.9157 87.5058 13.8819C87.8341 13.2606 88.212 12.6659 88.636 12.1033C88.9821 11.6303 89.3784 11.1947 89.8181 10.8038C90.0424 10.556 90.3495 10.3951 90.6839 10.3503C90.9068 10.3503 91.0053 10.5694 90.9794 10.9669C90.8841 11.6781 90.6832 12.3718 90.3832 13.0257L90.378 13.0053Z" fill="#DA1212"/>
<path d="M28.4638 57.0832C24.5445 56.5089 20.677 55.6331 16.8971 54.4638C19.0228 53.3427 20.8512 51.3348 22.3824 48.4401C23.9251 45.506 24.9406 42.332 25.3842 39.0581C25.8577 35.698 25.6849 32.8102 24.8657 30.3946C24.4313 28.9597 23.5896 27.6763 22.4394 26.6948C21.2944 25.7774 19.8383 25.3204 18.3643 25.4157C17.8777 25.4185 17.3946 25.4976 16.9334 25.6501C15.3054 26.1801 13.9696 27.5391 12.9257 29.727C12.2005 29.0756 11.3536 28.5685 10.432 28.2339C9.71224 27.8857 8.89547 27.7818 8.10929 27.9383C7.96366 27.9763 7.83021 28.0501 7.72141 28.1526C7.61262 28.255 7.53202 28.383 7.48714 28.5244C6.57033 31.6917 5.83641 34.9074 5.28889 38.1561C4.59796 41.9824 4.177 45.8512 4.02905 49.7346C3.89079 53.6212 4.24507 56.8216 5.09188 59.3357C5.84882 61.6052 6.99806 63.1103 8.5396 63.8509C10.235 64.6663 11.443 64.9619 12.1688 64.7275C12.3327 64.6879 12.4824 64.6046 12.6013 64.4869C12.7202 64.3691 12.8038 64.2213 12.8428 64.0599C12.9157 63.6507 12.8745 63.2298 12.7235 62.8419C12.5621 62.4067 12.3535 61.9898 12.1014 61.5984C11.9159 61.2748 11.7648 60.9332 11.6503 60.5792C11.4947 60.1089 11.3717 59.6287 11.2822 59.1421C13.8191 59.7908 16.4124 60.2037 19.0279 60.3754C21.2716 60.5881 23.5324 60.5522 25.7679 60.2683C25.9445 60.2427 26.1182 60.2 26.2863 60.1409C26.7893 59.9743 27.2518 59.707 27.6447 59.3561C28.0281 59.0362 28.3587 58.6597 28.6245 58.2401C28.726 58.1123 28.7996 57.9654 28.8406 57.8084C28.8817 57.6515 28.8893 57.4878 28.863 57.3278C28.8328 57.2498 28.7774 57.1836 28.7053 57.1395C28.6332 57.0953 28.5484 57.0756 28.4638 57.0832ZM12.5784 53.0063C12.3419 52.8985 12.0902 52.8263 11.8318 52.7923C11.5484 52.7758 11.2653 52.8283 11.0074 52.9451H10.9763C11.0593 50.815 11.3393 47.8269 11.8162 43.981C12.2383 40.4136 12.8841 36.8752 13.7501 33.3861C14.5658 30.1653 15.5094 28.3817 16.5808 28.0351C16.7004 28.0012 16.8246 27.9857 16.9489 27.9893C17.3067 27.9893 17.6022 28.3103 17.8303 29.0085C18.3488 30.5441 18.4369 33.223 18.0947 37.0451C17.7967 40.6403 17.1155 44.1949 16.0624 47.6502C15.0497 50.8914 13.8883 52.6734 12.5784 52.9961V53.0063Z" fill="#DA1212"/>
<path d="M83.5235 28.1019C84.1559 28.5191 84.8363 28.8612 85.5506 29.1211C86.1833 29.3926 86.8667 29.5314 87.557 29.5288C87.7484 29.5442 87.9403 29.5071 88.1115 29.4216C88.2827 29.3362 88.4264 29.2056 88.5265 29.0446L89.045 28.112C89.2264 27.8369 89.3612 27.6024 89.4545 27.475C89.5494 27.3223 89.5913 27.1435 89.5738 26.9654C89.5386 26.7353 89.4544 26.5152 89.3267 26.3193C89.1989 26.1235 89.0305 25.9564 88.8324 25.829C88.3109 25.4326 87.7207 25.1322 87.0904 24.9423C86.4774 24.7343 85.8306 24.6393 85.1825 24.662C84.9346 24.654 84.6878 24.6975 84.4582 24.7898C84.2286 24.882 84.0214 25.0208 83.8501 25.1971C83.5887 25.5017 83.3642 25.8352 83.1813 26.1908C82.999 26.5022 82.8513 26.832 82.7406 27.1744C82.6922 27.402 82.9532 27.7112 83.5235 28.1019Z" fill="#DA1212"/>
<path d="M129.314 40.6261C128.851 40.5786 128.317 40.9455 127.712 41.7269C126.739 43.0762 125.584 44.2898 124.28 45.335C123.177 46.1775 122.296 46.5614 121.636 46.4867C120.977 46.4153 120.708 45.8751 120.817 44.8712C120.979 43.4613 121.81 41.54 123.31 39.1075C123.671 38.5969 124.059 38.1053 124.472 37.6347C125.042 36.9671 125.617 36.3046 126.208 35.6421C126.333 35.4996 126.406 35.3203 126.416 35.1325C126.429 34.4554 126.25 33.7881 125.897 33.2061C125.506 32.4429 125.005 31.7391 124.409 31.1167C124.02 30.6239 123.472 30.2768 122.854 30.1331C122.701 30.1069 122.543 30.1282 122.403 30.1943C121.432 30.713 120.53 31.348 119.717 32.085C119.668 31.4906 119.456 30.9204 119.106 30.4338C118.672 29.8757 118.155 29.3859 117.571 28.9814C116.749 28.4499 115.808 28.1245 114.828 28.0335C112.924 27.8793 111.021 28.3429 109.411 29.3534C107.364 30.6231 105.684 32.3885 104.532 34.4802C103.709 35.8226 103.179 37.3186 102.977 38.873C102.78 39.097 102.606 39.3394 102.458 39.5967C101.633 40.9877 100.641 42.2761 99.5029 43.4341C98.6007 44.297 97.8559 44.7251 97.2683 44.7183C97.0868 44.715 96.91 44.6616 96.7578 44.5643C96.6056 44.467 96.4843 44.3297 96.4077 44.1679C96.178 43.6915 96.0763 43.1651 96.1122 42.6391C96.1926 41.1729 96.4949 39.7267 97.0091 38.3481C97.7402 36.2841 98.6508 34.2858 99.731 32.3754C100.875 30.286 102.067 28.3206 103.308 26.4792C105.024 26.3518 107.026 26.2957 109.302 26.311C109.525 26.311 109.633 26.2703 109.633 26.1734C109.633 26.0766 109.385 25.7606 108.887 25.4447C108.355 25.1082 107.784 24.8362 107.186 24.6344C106.421 24.4132 105.634 24.2731 104.838 24.2165C106.103 22.4702 107.255 20.9618 108.296 19.6911L109.188 18.5088C109.297 18.3616 109.35 18.1812 109.338 17.9992C109.28 17.3171 109.031 16.6643 108.617 16.1136C108.152 15.3836 107.583 14.7228 106.927 14.1516C106.498 13.6959 105.924 13.3976 105.299 13.3056C105.128 13.2885 104.957 13.3379 104.822 13.4432C103.214 14.8782 101.732 16.4431 100.389 18.1215C98.7233 20.1549 97.199 22.2968 95.827 24.5325C93.8239 24.749 91.8338 25.0688 89.8648 25.4905C89.5226 25.5619 89.5485 25.725 89.9374 26.0002C90.4991 26.3328 91.102 26.5931 91.7312 26.7748C92.5304 27.0345 93.3535 27.2172 94.1887 27.3201C92.836 29.7102 91.7064 32.2159 90.8136 34.8063C90.3809 36.0743 90.0905 37.385 89.9477 38.7151C89.8185 38.8882 89.7024 39.0705 89.6004 39.2604C88.8435 40.738 87.9182 42.1263 86.8422 43.3984C85.9816 44.3463 85.2592 44.8355 84.675 44.8661C84.5 44.8782 84.3251 44.841 84.1709 44.7588C84.0166 44.6767 83.8894 44.5531 83.804 44.4024C83.5578 43.9658 83.4293 43.4746 83.4308 42.9754C83.4263 41.5221 83.6483 40.0768 84.0892 38.6896C84.705 36.5907 85.4957 34.5453 86.4533 32.5742C86.4869 32.4667 86.5061 32.3553 86.5104 32.2429C86.4589 31.9782 86.3544 31.7261 86.2031 31.5013C86.0519 31.2765 85.8567 31.0834 85.629 30.9332C85.028 30.4479 84.3548 30.0561 83.6329 29.7713C83.0206 29.4913 82.3537 29.3452 81.6784 29.3432C81.5208 29.3366 81.3639 29.3669 81.2206 29.4316C81.0773 29.4963 80.9516 29.5935 80.854 29.7153C79.7244 31.3187 78.803 33.0547 78.1114 34.8827C77.5687 36.2254 77.2365 37.6413 77.1263 39.082C76.9846 39.294 76.8648 39.5193 76.7686 39.7547C76.0477 41.5706 75.0147 43.2513 73.7149 44.7234C72.6123 45.8955 71.5599 46.5377 70.5575 46.6498C70.1749 46.7018 69.7851 46.6597 69.4232 46.5272C69.0612 46.3946 68.7384 46.1759 68.4837 45.8904C67.8492 45.1516 67.4745 44.2311 67.4157 43.2659C67.3769 42.9786 67.3544 42.6894 67.3483 42.3996C68.7149 41.6573 69.9566 40.7119 71.0293 39.5967C72.2196 38.4192 73.2448 37.091 74.0778 35.6472C74.7923 34.5327 75.1348 33.2268 75.0577 31.9117C75.0166 31.4915 74.8802 31.0858 74.6585 30.7243C74.1249 29.7937 73.3119 29.048 72.3306 28.589C71.344 28.1377 70.2467 27.9732 69.1681 28.1151C67.2923 28.3865 65.5615 29.2631 64.2479 30.6071C62.5527 32.3057 61.3237 34.3993 60.6758 36.6919C60.2288 38.0298 60.0527 39.4408 60.1573 40.8452C59.9857 41.111 59.8448 41.3947 59.7374 41.6912C59.1471 43.3369 58.2602 44.8646 57.1192 46.2013C56.0822 47.37 55.0799 48.0393 54.1121 48.2092C53.834 48.2725 53.5447 48.2718 53.2668 48.2073C52.989 48.1428 52.73 48.0161 52.5101 47.8372C52.0032 47.3509 51.6858 46.7053 51.6132 46.0128C51.3747 44.7353 51.5043 43.023 52.002 40.8758C52.4103 39.1368 53.0318 37.453 53.8529 35.8612C54.6133 34.4139 55.2717 33.641 55.8282 33.5425C55.9493 33.5152 56.0762 33.5291 56.1883 33.5818C56.3003 33.6346 56.3909 33.7231 56.4452 33.8329C56.56 34.0726 56.7512 34.2689 56.9898 34.3922C57.2283 34.5154 57.5013 34.5588 57.7672 34.5158C57.9065 34.4946 58.0399 34.4457 58.1592 34.3721C58.2786 34.2984 58.3814 34.2017 58.4615 34.0877C58.5416 33.9737 58.5971 33.8449 58.6248 33.7091C58.6526 33.5733 58.6518 33.4334 58.6227 33.2978C58.5889 33.1672 58.5402 33.0406 58.4775 32.9207C58.197 32.3859 57.8111 31.9112 57.3421 31.5244C56.8131 31.1162 56.2042 30.8195 55.5534 30.6529C54.4944 30.3119 53.3631 30.2486 52.2716 30.4695C50.4478 30.8409 48.8042 31.8049 47.6055 33.2061C46.223 34.7146 45.2604 36.8397 44.7177 39.5814C44.4329 41.0175 44.3961 42.4905 44.6088 43.9386C44.526 44.1285 44.4584 44.3244 44.4066 44.5247C43.9165 46.4118 43.1049 48.2038 42.0062 49.8247C41.0522 51.1242 40.0931 51.8886 39.1132 52.123C38.7405 52.2194 38.3492 52.2232 37.9746 52.1343C37.6 52.0453 37.2537 51.8664 36.9668 51.6134C36.2416 50.96 35.7521 50.0925 35.5722 49.1418C35.4959 48.8619 35.437 48.5777 35.3959 48.2907C36.659 47.3886 37.7715 46.2985 38.6933 45.0598C39.727 43.7473 40.5763 42.304 41.2181 40.7688C41.7939 39.5796 41.9752 38.2427 41.7366 36.9467C41.6507 36.5351 41.4737 36.1471 41.2181 35.8102C40.5647 34.9542 39.6599 34.3157 38.6259 33.9807C37.5893 33.654 36.4793 33.6257 35.427 33.8992C33.6022 34.3936 31.9959 35.469 30.8594 36.9569C29.3962 38.8503 28.4438 41.0767 28.0909 43.429C27.7838 44.9355 27.8103 46.4894 28.1686 47.985C28.5388 49.5433 29.3791 50.9554 30.5794 52.0364C31.9326 53.1877 33.6039 53.9169 35.3803 54.1309C36.5533 54.3183 37.752 54.2819 38.911 54.0239C40.7359 53.5675 42.3485 52.5143 43.4838 51.0376C44.4632 49.8028 45.2078 48.4044 45.682 46.9097C46.1947 47.7741 46.8851 48.5239 47.7092 49.1112C49.3759 50.2845 51.3778 50.9089 53.4278 50.8949C53.7475 50.8792 54.066 50.8451 54.3817 50.7929C55.8645 50.4665 57.1986 49.6739 58.182 48.5353C59.3891 47.152 60.3212 45.5582 60.9298 43.8367C61.2254 44.4456 61.6001 45.0144 62.0445 45.5286C63.2397 46.8368 64.8048 47.7648 66.5395 48.1939C67.68 48.5275 68.8759 48.6383 70.0598 48.5201C71.9259 48.2902 73.6571 47.4438 74.9696 46.1198C76.0126 45.1011 76.8716 43.9155 77.51 42.6136C78.2635 44.7642 79.9917 46.2676 82.6945 47.1237C83.1603 47.275 83.6517 47.3356 84.141 47.3021C86.2149 47.1968 88.2334 45.4658 90.1966 42.1091C90.6051 43.6847 91.5862 45.0587 92.9548 45.972C93.967 46.7745 95.2124 47.2402 96.5114 47.3021C97.2271 47.2925 97.9336 47.1419 98.589 46.8592C99.2445 46.5765 99.8355 46.1673 100.327 45.656C101.418 44.5846 102.372 43.3867 103.168 42.0887C103.314 42.6418 103.519 43.1782 103.78 43.6889C104.608 45.208 105.911 46.4248 107.497 47.1594C107.933 47.3785 108.406 47.5168 108.892 47.5671C110.89 47.7811 113.064 46.5258 115.414 43.801C116.029 45.7783 117.433 47.3343 119.624 48.4691C120.059 48.6941 120.535 48.831 121.024 48.8717C123.443 49.1299 126.091 47.2613 128.967 43.2659C129.383 42.7541 129.656 42.1447 129.76 41.4976C129.796 40.9472 129.656 40.6669 129.314 40.6261ZM67.8667 38.4704C68.24 37.0853 68.8108 35.7591 69.5621 34.5311C70.3398 33.2571 71.0034 32.5844 71.5633 32.5232C71.6364 32.5031 71.7133 32.5003 71.7878 32.5149C71.8622 32.5295 71.9321 32.5612 71.9917 32.6074C72.0513 32.6536 72.099 32.713 72.1309 32.7807C72.1628 32.8484 72.1779 32.9226 72.1751 32.9972C72.1688 33.6508 71.9901 34.2917 71.6566 34.8573C71.1958 35.7659 70.6323 36.6207 69.9768 37.4053C69.2861 38.2584 68.4882 39.0221 67.6023 39.6782L67.8667 38.4704ZM35.2715 45.5541L35.3855 44.3361C35.5779 42.9152 35.9759 41.5286 36.5676 40.2184C37.1759 38.8594 37.7531 38.112 38.2992 37.9761C38.3693 37.949 38.4448 37.9381 38.5198 37.9445C38.5948 37.9508 38.6673 37.9742 38.7316 38.0127C38.7959 38.0512 38.8502 38.1038 38.8903 38.1665C38.9305 38.2291 38.9553 38.3 38.9629 38.3736C39.0418 39.0237 38.9452 39.6828 38.6829 40.2847C38.3428 41.2393 37.8922 42.1524 37.3401 43.006C36.7654 43.9397 36.0701 44.7961 35.2715 45.5541ZM117.493 32.9207C117.27 34.1518 116.863 35.3436 116.285 36.4575C115.666 37.6847 115.257 39.0034 115.072 40.3611C115.038 40.6248 115.021 40.8903 115.02 41.1561C114.127 42.3253 113.081 43.374 111.909 44.275C110.919 44.9884 110.142 45.3197 109.582 45.2585C108.923 45.1872 108.654 44.6368 108.768 43.6074C108.92 42.2484 109.727 40.3118 111.189 37.7977C111.814 36.727 112.521 35.7048 113.304 34.7401C113.948 33.9357 114.675 33.198 115.471 32.5385C116.15 32.0289 116.669 31.7588 117.027 31.7996C117.384 31.8403 117.571 32.2277 117.493 32.9207Z" fill="#DA1212"/>
</svg>
